Patient4_TMGait_0pt2_02_right_21_GRF.mot
version=1
nRows=71
nColumns=19
inDegrees=no
endheader
time	F1x	F1y	F1z	M1x	M1y	M1z	F2x	F2y	F2z	M2x	M2y	M2z	EC1x	EC1y	EC1z	EC2x	EC2y	EC2z
46.46	-21.1567	788.3691	58.6583	-284.3182	-77.8083	928.7309	-10.08	-8.0696	1.4681	-1.833	0.90487	-11.367	-0.0592	0.0182	-0.0073	-0.0462	0.0165	0.9585
46.4816	-20.9647	809.7531	58.9215	-292.0593	-77.3857	952.5199	-7.1897	-5.0605	0.96951	-1.1148	0.77517	-7.1636	-0.0592	0.0182	-0.0073	-0.0462	0.0165	0.9585
46.5033	-20.6856	835.0262	59.107	-301.2377	-76.731	980.2882	-4.7236	-2.4584	0.53847	-0.49167	0.66782	-3.544	-0.0592	0.0182	-0.0073	-0.0462	0.0165	0.9585
46.5249	-20.2574	861.2478	59.2433	-310.7899	-75.8956	1008.5452	-2.8401	-0.42891	0.20275	-0.0025998	0.59046	-0.73267	-0.0592	0.0182	-0.0073	-0.0462	0.0165	0.9585
46.5466	-19.5678	884.3446	59.3609	-319.2418	-74.9151	1032.5315	-1.5435	1.0149	-0.038048	0.34984	0.54714	1.2582	-0.0592	0.0182	-0.0073	-0.0462	0.0165	0.9585
46.5682	-18.4355	900.1031	59.4264	-325.0732	-73.7201	1047.3593	-0.75343	1.9398	-0.19872	0.58085	0.5373	2.5263	-0.0592	0.0182	-0.0073	-0.0462	0.0165	0.9585
46.5899	-16.6578	905.2465	59.3099	-327.1109	-72.1126	1049.2663	-0.35326	2.4384	-0.29728	0.70927	0.55425	3.208	-0.0592	0.0182	-0.0073	-0.0462	0.0165	0.9585
46.6115	-14.0632	898.2615	58.8188	-324.8276	-69.8227	1036.5778	-0.22559	2.5887	-0.35321	0.74912	0.59115	3.4229	-0.0592	0.0182	-0.0073	-0.0462	0.0165	0.9585
46.6331	-10.5409	879.747	57.7797	-318.4583	-66.6144	1010.0929	-0.26874	2.4352	-0.38311	0.70448	0.64024	3.2443	-0.0592	0.0182	-0.0073	-0.0462	0.0165	0.9585
46.6548	-6.06	852.2616	56.1129	-308.9361	-62.3835	972.8797	-0.40165	1.9897	-0.39615	0.56948	0.69075	2.6986	-0.0592	0.0182	-0.0073	-0.0462	0.0165	0.9585
46.6764	-0.68659	819.7282	53.8834	-297.6706	-57.2226	929.5667	-0.56286	1.2399	-0.39575	0.33199	0.72979	1.7803	-0.0592	0.0182	-0.0073	-0.0462	0.0165	0.9585
46.6981	5.4028	786.5811	51.2909	-286.2432	-51.4112	885.3556	-0.70289	0.15588	-0.37875	-0.023578	0.74186	0.45965	-0.0592	0.0182	-0.0073	-0.0462	0.0165	0.9585
46.7197	11.9405	756.9473	48.6107	-276.1186	-45.3447	845.0726	-0.78114	-1.2814	-0.33835	-0.50622	0.70707	-1.2873	-0.0592	0.0182	-0.0073	-0.0462	0.0165	0.9585
46.7414	18.6243	733.9801	46.1198	-268.4125	-39.4332	812.3937	-0.76057	-3.0372	-0.26572	-1.1046	0.60287	-3.4277	-0.0592	0.0182	-0.0073	-0.0462	0.0165	0.9585
46.763	25.1604	719.4171	44.0432	-263.734	-34.0269	789.3547	-0.60375	-4.9693	-0.15142	-1.7694	0.40532	-5.7972	-0.0592	0.0182	-0.0073	-0.0462	0.0165	0.9585
46.7846	31.2986	713.379	42.5398	-262.1102	-29.3889	776.1404	-0.27149	-6.7694	0.01127	-2.3914	0.091873	-8.0213	-0.0592	0.0182	-0.0073	-0.0462	0.0165	0.9585
46.8063	36.8568	714.4541	41.7089	-263.0145	-25.6975	771.2089	0.27174	-7.893	0.22338	-2.7769	-0.35312	-9.4357	-0.0592	0.0182	-0.0073	-0.0462	0.0165	0.9585
46.8279	41.7313	720.0931	41.5812	-265.5048	-23.0404	771.7572	1.0468	-7.4938	0.47392	-2.6253	-0.92425	-9.0122	-0.0592	0.0182	-0.0073	-0.0462	0.0165	0.9585
46.8496	45.893	727.1903	42.1043	-268.4345	-21.3979	774.3871	2.0382	-4.3853	0.73534	-1.5175	-1.578	-5.311	-0.0592	0.0182	-0.0073	-0.0462	0.0165	0.9585
46.8712	49.3301	732.5713	43.1502	-270.629	-20.6662	775.6794	3.1651	2.9371	0.95312	1.0764	-2.2099	3.5019	-0.0592	0.0182	-0.0073	-0.0462	0.0165	0.9585
46.8929	51.9748	733.3267	44.5187	-271.0098	-20.6851	772.5812	4.243	16.1682	1.0356	5.7528	-2.6318	19.5039	-0.0592	0.0182	-0.0073	-0.0462	0.0165	0.9585
46.9145	53.6701	727.0609	45.9437	-268.6881	-21.2528	762.6635	4.9411	36.9131	0.84945	13.0742	-2.5533	44.6755	-0.0592	0.0182	-0.0073	-0.0462	0.0165	0.9585
46.9361	54.1816	712.038	47.1246	-263.0221	-22.1526	744.2525	4.7459	66.2124	0.21252	23.4009	-1.5619	80.3252	-0.0592	0.0182	-0.0073	-0.0462	0.0165	0.9585
46.9578	53.2409	687.2359	47.7645	-253.638	-23.1795	716.4464	3.0592	104.0245	-1.1081	36.705	0.83916	126.4558	-0.0592	0.0182	-0.0073	-0.0462	0.0165	0.9585
46.9794	50.6465	652.4477	47.6101	-240.4695	-24.1485	679.165	-0.30621	148.8611	-3.3794	52.4383	5.035	181.2859	-0.0592	0.0182	-0.0073	-0.0462	0.0165	0.9585
47.0011	46.4096	608.6403	46.5086	-223.8889	-24.8966	633.4596	-4.9885	197.7269	-6.7717	69.5207	11.0744	241.1148	-0.0592	0.0182	-0.0073	-0.0462	0.0165	0.9585
47.0227	40.84	558.2618	44.4718	-204.8159	-25.3119	581.7917	-10.3621	247.6869	-11.0722	86.919	18.4422	302.2515	-0.0592	0.0182	-0.0073	-0.0462	0.0165	0.9585
47.0444	34.4906	504.8294	41.6742	-184.569	-25.3527	527.6136	-15.8356	297.1352	-15.8125	104.0931	26.3441	362.6212	-0.0592	0.0182	-0.0073	-0.0462	0.0165	0.9585
47.066	28.0171	451.91	38.3517	-164.495	-24.9912	474.3599	-20.9106	345.1985	-20.4685	120.7691	33.9739	421.0547	-0.0592	0.0182	-0.0073	-0.0462	0.0165	0.9585
47.0876	22.0381	402.2903	34.7425	-145.658	-24.2047	424.6397	-25.1257	391.0054	-24.6129	136.6662	40.6673	476.3938	-0.0592	0.0182	-0.0073	-0.0462	0.0165	0.9585
47.1093	17.0161	357.6664	31.0895	-128.7158	-23.0257	379.9659	-28.0985	433.4164	-28.0247	151.3917	46.0366	527.1891	-0.0592	0.0182	-0.0073	-0.0462	0.0165	0.9585
47.1309	13.2077	318.6936	27.6088	-113.9369	-21.538	340.8413	-29.64	471.232	-30.676	164.5172	49.991	571.971	-0.0592	0.0182	-0.0073	-0.0462	0.0165	0.9585
47.1526	10.6975	285.1556	24.437	-101.2674	-19.8167	306.9352	-29.8	503.6628	-32.628	175.755	52.6266	609.8113	-0.0592	0.0182	-0.0073	-0.0462	0.0165	0.9585
47.1742	9.4458	256.1121	21.6076	-90.3848	-17.8909	277.2323	-28.8049	530.7938	-33.9548	185.1286	54.116	640.8565	-0.0592	0.0182	-0.0073	-0.0462	0.0165	0.9585
47.1959	9.3121	230.1093	19.0639	-80.7684	-15.7448	250.2354	-26.9842	553.7093	-34.7682	193.0152	54.7087	666.4522	-0.0592	0.0182	-0.0073	-0.0462	0.0165	0.9585
47.2175	10.0762	205.4968	16.6826	-71.8159	-13.3348	224.2713	-24.7093	574.2391	-35.2692	200.051	54.7688	688.8239	-0.0592	0.0182	-0.0073	-0.0462	0.0165	0.9585
47.2391	11.4493	180.8055	14.3256	-62.9817	-10.6348	197.8598	-22.3114	594.4477	-35.7289	206.9534	54.7216	710.4482	-0.0592	0.0182	-0.0073	-0.0462	0.0165	0.9585
47.2608	13.0694	155.1035	11.8974	-53.9066	-7.6935	170.0894	-20.0072	616.0938	-36.3842	214.3404	54.9097	733.4026	-0.0592	0.0182	-0.0073	-0.0462	0.0165	0.9585
47.2824	14.5069	128.2558	9.3914	-44.5104	-4.6762	140.8926	-17.8959	640.2338	-37.3365	222.5975	55.4785	758.9224	-0.0592	0.0182	-0.0073	-0.0462	0.0165	0.9585
47.3041	15.3083	101.0029	6.9056	-35.0214	-1.8616	111.1307	-15.9838	666.8691	-38.5414	231.751	56.3688	787.0259	-0.0592	0.0182	-0.0073	-0.0462	0.0165	0.9585
47.3257	15.087	74.7854	4.6168	-25.9171	0.41816	82.4125	-14.2036	694.7362	-39.8555	241.3844	57.3793	816.2857	-0.0592	0.0182	-0.0073	-0.0462	0.0165	0.9585
47.3474	13.6697	51.2699	2.7055	-17.7624	1.9037	56.5892	-12.4421	721.4886	-41.0861	250.6925	58.2373	844.0538	-0.0592	0.0182	-0.0073	-0.0462	0.0165	0.9585
47.369	11.2301	31.7534	1.276	-10.9999	2.5389	35.1068	-10.5766	744.2744	-42.0431	258.6799	58.672	867.1369	-0.0592	0.0182	-0.0073	-0.0462	0.0165	0.9585
47.3906	8.2806	16.8276	0.3358	-5.8304	2.4905	18.639	-8.533	760.533	-42.5885	264.4388	58.4934	882.7189	-0.0592	0.0182	-0.0073	-0.0462	0.0165	0.9585
47.4123	5.3955	6.3972	-0.19185	-2.2186	2.0397	7.101	-6.3258	768.7277	-42.6691	267.4069	57.6419	889.203	-0.0592	0.0182	-0.0073	-0.0462	0.0165	0.9585
47.4339	2.9477	-0.14954	-0.42268	0.047797	1.437	-0.16526	-4.0444	768.8084	-42.3256	267.5348	56.1901	886.7148	-0.0592	0.0182	-0.0073	-0.0462	0.0165	0.9585
47.4556	1.0811	-3.6849	-0.46315	1.2713	0.83917	-4.1063	-1.8443	762.3225	-41.6704	265.3301	54.3192	877.1867	-0.0592	0.0182	-0.0073	-0.0462	0.0165	0.9585
47.4772	-0.21031	-5.1042	-0.39761	1.7623	0.32771	-5.7005	0.01476	752.1961	-40.8462	261.7921	52.2907	864.096	-0.0592	0.0182	-0.0073	-0.0462	0.0165	0.9585
47.4989	-1.0118	-5.1842	-0.28758	1.7905	-0.063575	-5.8006	1.201	742.2978	-39.9736	258.2671	50.3781	851.9435	-0.0592	0.0182	-0.0073	-0.0462	0.0165	0.9585
47.5205	-1.4361	-4.5278	-0.17208	1.5656	-0.33264	-5.0724	1.4443	736.6932	-39.1256	256.1889	48.7887	845.3726	-0.0592	0.0182	-0.0073	-0.0462	0.0165	0.9585
47.5421	-1.5975	-3.5602	-0.07118	1.2358	-0.49737	-3.9954	0.65763	738.6936	-38.337	256.741	47.6248	848.0683	-0.0592	0.0182	-0.0073	-0.0462	0.0165	0.9585
47.5638	-1.596	-2.5514	0.0106	0.89331	-0.58404	-2.881	-1.0513	750.0327	-37.5986	260.5611	46.8644	861.8323	-0.0592	0.0182	-0.0073	-0.0462	0.0165	0.9585
47.5854	-1.511	-1.6511	0.075688	0.58788	-0.62072	-1.8949	-3.4193	770.3752	-36.8597	267.5583	46.3708	886.0568	-0.0592	0.0182	-0.0073	-0.0462	0.0165	0.9585
47.6071	-1.3941	-0.92712	0.12763	0.34046	-0.63243	-1.1056	-6.1093	797.3088	-36.0672	276.8976	45.9604	917.7573	-0.0592	0.0182	-0.0073	-0.0462	0.0165	0.9585
47.6287	-1.2765	-0.39547	0.16869	0.15514	-0.63604	-0.52969	-8.7807	826.8814	-35.1922	287.1837	45.4636	952.2368	-0.0592	0.0182	-0.0073	-0.0462	0.0165	0.9585
47.6504	-1.1763	-0.0433	0.20043	0.028566	-0.63864	-0.1538	-11.1296	854.4894	-34.2359	296.772	44.7492	984.1418	-0.0592	0.0182	-0.0073	-0.0462	0.0165	0.9585
47.672	-1.1049	0.14846	0.22623	-0.044764	-0.64448	0.043236	-12.9287	875.792	-33.2222	304.095	43.742	1008.521	-0.0592	0.0182	-0.0073	-0.0462	0.0165	0.9585
47.6936	-1.0677	0.18955	0.2503	-0.069442	-0.65716	0.07278	-14.0364	887.4404	-32.2007	307.9277	42.4384	1021.6404	-0.0592	0.0182	-0.0073	-0.0462	0.0165	0.9585
47.7153	-1.0618	0.082351	0.27408	-0.047112	-0.67758	-0.072178	-14.3928	887.5719	-31.2501	307.5716	40.9116	1021.5075	-0.0592	0.0182	-0.0073	-0.0462	0.0165	0.9585
47.7369	-1.0776	-0.17058	0.29514	0.024604	-0.70422	-0.40496	-14.0139	876.045	-30.4737	302.9488	39.3023	1008.0952	-0.0592	0.0182	-0.0073	-0.0462	0.0165	0.9585
47.7586	-1.1008	-0.57362	0.3083	0.15387	-0.72943	-0.93616	-12.9588	854.3596	-29.9908	294.5836	37.7967	983.2016	-0.0592	0.0182	-0.0073	-0.0462	0.0165	0.9585
47.7802	-1.1169	-1.1438	0.30868	0.35081	-0.74296	-1.6876	-11.2881	825.3443	-29.9127	283.4957	36.5766	950.0528	-0.0592	0.0182	-0.0073	-0.0462	0.0165	0.9585
47.8019	-1.1148	-1.893	0.29218	0.6202	-0.73207	-2.6716	-9.0745	792.6776	-30.3058	271.0283	35.7729	912.7597	-0.0592	0.0182	-0.0073	-0.0462	0.0165	0.9585
47.8235	-1.0778	-2.8022	0.25568	0.95426	-0.68283	-3.855	-6.4403	760.2515	-31.1635	258.6163	35.4469	875.6218	-0.0592	0.0182	-0.0073	-0.0462	0.0165	0.9585
47.8451	-0.98428	-3.7888	0.19568	1.3221	-0.58217	-5.1212	-3.5659	731.5713	-32.4135	247.5652	35.5959	842.4837	-0.0592	0.0182	-0.0073	-0.0462	0.0165	0.9585
47.8668	-0.81009	-4.6704	0.1115	1.6579	-0.41946	-6.2275	-0.65707	709.2815	-33.9318	238.8754	36.1569	816.2209	-0.0592	0.0182	-0.0073	-0.0462	0.0165	0.9585
47.8884	-0.53294	-5.1319	0.0046243	1.8489	-0.18496	-6.7593	2.1241	694.9552	-35.5701	233.1587	37.0128	798.5071	-0.0592	0.0182	-0.0073	-0.0462	0.0165	0.9585
47.9101	-0.14053	-4.6945	-0.12019	1.7229	0.12222	-6.0879	4.7052	689.0679	-37.2004	230.6211	38.0268	789.795	-0.0592	0.0182	-0.0073	-0.0462	0.0165	0.9585
47.9317	0.36193	-2.7071	-0.25044	1.0414	0.48102	-3.3599	7.0887	691.0738	-38.7335	231.0869	39.0739	789.416	-0.0592	0.0182	-0.0073	-0.0462	0.0165	0.9585
47.9534	0.93794	1.6366	-0.3602	-0.49606	0.83812	2.4648	9.3316	699.5632	-40.1084	234.0564	40.0371	795.7648	-0.0592	0.0182	-0.0073	-0.0462	0.0165	0.9585
47.975	1.5009	9.2225	-0.40219	-3.2228	1.0942	12.5072	11.5222	712.4197	-41.2807	238.7647	40.8055	806.5042	-0.0592	0.0182	-0.0073	-0.0462	0.0165	0.9585
